<?xml version="1.0" encoding="UTF-8"?>
<svg version="1.1" viewBox="0 0 1024 1024" width="1024" height="1024" xmlns="http://www.w3.org/2000/svg">
<path transform="translate(516,489)" d="m0 0h7l6 4 64 64 7 6 5 5 4 5 8 7 5 5v2h2l33 33 6 8v8l-3 5-17 17-10 11-8 7-7 8-57 57h-2l-2 4-7 6-5 5-4 5-5 5-7 5-3 1h-22l-6-4-2-4 2-9 12-34 6-15 3-4h2l1-3h2l2-4 6-5 7-8 20-20 7-8 15-15 5-6h-2l-7-8-8-8-7-8-16-16-7-8-3-2-9 20-21 49-13 30-19 45-18 42-11 25-4 5-4 2h-34l-18-1-5-3-1-2v-7l19-42 13-30 17-38 44-99 26-60 10-23 5-5z" fill="#FEFEFE"/>
<path transform="translate(525,166)" d="m0 0h8l8 3 43 43 7 9 2 5v11l-3 6-5 6-8 7-7 7-1 2v36l-4 11-122 122-7 4-4 1h-9l-10-5-66-66-4-6-1-3v-10l4-8 96-96 9-10h2l2-4 6-5 7-8 47-47z" fill="#FEFEFE"/>
<path transform="translate(556,358)" d="m0 0h6l9 6 2 4 4 2 4 5 5 5 10 9 3 3v2l4 2 74 74 2 1v2l4 2 5 5 2 4 4 2 81 81 5 4v2l4 2 6 7 5 5 2 5v9l-4 8-4 2-2 4-16 16-10 5h-9l-7-3-8-7-61-61-5-4-6-7-5-4-5-5-6-7-5-5-3-2v-2l-4-2-15-15v-2h-2l-57-57-5-4-5-6-5-5-7-6v-2l-4-2-22-22-1-8 4-6 28-28 7-5z" fill="#FEFEFE"/>
<path transform="translate(358,487)" d="m0 0h54l8 2 4 4 1 6-3 5-25 25-15 16-13 13-8 7-47 47-6 7h-2l-2 4-6 5-5 6 50 50 8 7 27 27 1 3v8l-10 25-8 16-3 2h-8l-8-6-9-9-8-7-5-6-8-7v-2l-4-2-90-90-4-8 1-9 4-6 128-128z" fill="#FEFEFE"/>
</svg>
