<?xml version="1.0" encoding="UTF-8" standalone="no"?>
<!-- Created with Pixodesk SVG (https://pixodesk.com) -->
<svg xmlns="http://www.w3.org/2000/svg" viewBox="0 0 1024 1024" text-rendering="geometricPrecision" shape-rendering="geometricPrecision" fill="#e61717">
  <path fill="#120988" transform="translate(516, 489)" d="M0,0L7,0L13,4L77,68L84,74L89,79L93,84L101,91L106,96L106,98L108,98L141,131L147,139L147,147L144,152L127,169L117,180L109,187L102,195L45,252L43,252L41,256L34,262L29,267L25,272L20,277L13,282L10,283L-12,283L-18,279L-20,275L-18,266L-6,232L0,217L3,213L5,213L6,210L8,210L10,206L16,201L23,193L43,173L50,165L65,150L70,144L68,144L61,136L53,128L46,120L30,104L23,96L20,94L11,114L-10,163L-23,193L-42,238L-60,280L-71,305L-75,310L-79,312L-113,312L-131,311L-136,308L-137,306L-137,299L-118,257L-105,227L-88,189L-44,90L-18,30L-8,7L-3,2L0,0z"/>
  <path fill="#4e0909" transform="translate(525, 166)" d="M0,0L8,0L16,3L59,46L66,55L68,60L68,71L65,77L60,83L52,90L45,97L44,99L44,135L40,146L-82,268L-89,272L-93,273L-102,273L-112,268L-178,202L-182,196L-183,193L-183,183L-179,175L-83,79L-74,69L-72,69L-70,65L-64,60L-57,52L-10,5L0,0z"/>
  <path fill="#d30a0a" transform="translate(556, 358)" d="M0,0L6,0L15,6L17,10L21,12L25,17L30,22L40,31L43,34L43,36L47,38L121,112L123,113L123,115L127,117L132,122L134,126L138,128L219,209L224,213L224,215L228,217L234,224L239,229L241,234L241,243L237,251L233,253L231,257L215,273L205,278L196,278L189,275L181,268L120,207L115,203L109,196L104,192L99,187L93,180L88,175L85,173L85,171L81,169L66,154L66,152L64,152L7,95L2,91L-3,85L-8,80L-15,74L-15,72L-19,70L-41,48L-42,40L-38,34L-10,6L-3,1L0,0z"/>
  <path fill="#f11e1e" transform="translate(358, 487)" d="M0,0L54,0L62,2L66,6L67,12L64,17L39,42L24,58L11,71L3,78L-44,125L-50,132L-52,132L-54,136L-60,141L-65,147L-15,197L-7,204L20,231L21,234L21,242L11,267L3,283L0,285L-8,285L-16,279L-25,270L-33,263L-38,257L-46,250L-46,248L-50,246L-140,156L-144,148L-143,139L-139,133L-11,5L0,0z"/>
</svg>